<?xml version="1.0" encoding="UTF-8"?>
<svg version="1.1" xmlns="http://www.w3.org/2000/svg" width="219" height="237">
<path d="M0 0 C6.47701159 0.04479089 12.95377771 0.05974208 19.43092346 0.06923103 C24.50119444 0.08207423 29.57114845 0.1167156 34.64126587 0.15734482 C37.03329629 0.17272072 39.425395 0.17993932 41.81747437 0.17844009 C45.12748214 0.17826037 48.43585042 0.20918624 51.74560547 0.24755859 C52.70643539 0.240504 53.66726532 0.2334494 54.6572113 0.22618103 C62.24164696 0.36577548 69.15664657 2.36402249 74.59365845 7.9124012 C79.67386804 14.090535 80.89108331 20.58274014 80.91146851 28.49287415 C80.91599962 29.22275533 80.92053073 29.95263652 80.92519915 30.70463532 C80.93778879 33.13331537 80.93622633 35.5617696 80.93457031 37.99047852 C80.94055896 39.73881313 80.94736528 41.48714511 80.95492554 43.23547363 C80.97255837 47.97319697 80.97727977 52.71084802 80.97855711 57.44860101 C80.97998079 60.41180369 80.9842545 63.37498812 80.98955154 66.33818626 C81.00804274 76.68502337 81.01622328 87.03180902 81.01464844 97.37866211 C81.01344725 107.00863803 81.03454754 116.63838974 81.06613576 126.26830894 C81.0923253 134.5488033 81.10301461 142.82922455 81.10173762 151.10975999 C81.10122878 156.04973279 81.1068688 160.98950625 81.12809372 165.92943764 C81.14752127 170.57773995 81.14756979 175.22565366 81.13306046 179.87397003 C81.13097687 181.57425444 81.13564631 183.27456346 81.14778137 184.97480583 C81.21402639 194.90405941 81.2578293 204.29979947 74.64404297 212.36035156 C73.98404297 212.87597656 73.32404297 213.39160156 72.64404297 213.92285156 C71.65404297 214.72722656 71.65404297 214.72722656 70.64404297 215.54785156 C67.30061648 217.84645728 64.69702498 219.16743793 60.60075378 219.20805359 C59.40403628 219.22697269 59.40403628 219.22697269 58.18314266 219.24627399 C56.88024461 219.25186471 56.88024461 219.25186471 55.55102539 219.25756836 C54.16402734 219.274991 54.16402734 219.274991 52.74900913 219.29276562 C49.66586276 219.32883402 46.58279195 219.35062444 43.49951172 219.37207031 C41.32065141 219.39394046 39.14179799 219.41650657 36.96295166 219.43972778 C31.1253069 219.498676 25.28763782 219.54387237 19.44984055 219.58465958 C15.84252758 219.61027357 12.2352463 219.63867957 8.62796021 219.66781616 C-18.90191529 219.88651959 -46.43773267 220.10052613 -73.96762085 219.7796936 C-76.58444205 219.75032382 -79.20133795 219.72694887 -81.81826782 219.70980835 C-85.37444892 219.68291988 -88.92915472 219.62996479 -92.48486328 219.56738281 C-93.99001495 219.56075119 -93.99001495 219.56075119 -95.52557373 219.5539856 C-102.55319224 219.38021025 -108.22985137 217.95843292 -113.37939453 212.95800781 C-114.04841797 211.98154297 -114.04841797 211.98154297 -114.73095703 210.98535156 C-115.19244141 210.33695313 -115.65392578 209.68855469 -116.12939453 209.02050781 C-118.9737924 204.15604393 -119.6483062 199.99513199 -119.62338257 194.41697693 C-119.62791368 193.66979796 -119.63244479 192.92261899 -119.63711321 192.15279824 C-119.64975546 189.65347873 -119.64813694 187.1543772 -119.64648438 184.6550293 C-119.65246996 182.86097433 -119.65927558 181.06692193 -119.6668396 179.27287292 C-119.68450933 174.40060407 -119.68919555 169.52840547 -119.69047117 164.65610766 C-119.69189343 161.60881048 -119.69616457 158.56153111 -119.70146561 155.51423836 C-119.7199731 144.87333164 -119.72813582 134.23247502 -119.7265625 123.59155273 C-119.72536274 113.69013891 -119.74643076 103.78894366 -119.77804983 93.8875851 C-119.80425925 85.37525488 -119.81492775 76.8629958 -119.81365168 68.35062557 C-119.81314317 63.27195084 -119.81876392 58.19347011 -119.84000778 53.11483574 C-119.85946739 48.33195011 -119.85946209 43.54944189 -119.84497452 38.76654243 C-119.84289447 37.01872324 -119.84753894 35.27087996 -119.85969543 33.52310181 C-120.00302572 11.47351694 -120.00302572 11.47351694 -113.10595703 3.23535156 C-106.96104069 0.30255058 -99.45419133 0.73530345 -92.74658203 0.60205078 C-91.8123793 0.58084293 -90.87817657 0.55963509 -89.91566467 0.53778458 C-86.81251819 0.47018209 -83.70929873 0.41045796 -80.60595703 0.35253906 C-79.52051605 0.33144955 -78.43507507 0.31036003 -77.31674194 0.28863144 C-51.54392003 -0.19932753 -25.77586027 -0.18394801 0 0 Z " fill="#6EB6FE" transform="translate(130.35595703125,8.0771484375)"/>
<path d="M0 0 C1.32064453 0.39832031 1.32064453 0.39832031 2.66796875 0.8046875 C16.90139766 5.68073982 27.4367227 15.98375416 34.3125 29.0625 C39.52829771 40.07826476 40.63554805 50.66114985 37.03515625 62.43359375 C34.07797958 69.76516007 28.2939509 75.37012141 22 80 C20.515 80.495 20.515 80.495 19 81 C20.13855339 87.98817131 22.02216105 94.15573695 24.875 100.625 C25.21402344 101.4190625 25.55304688 102.213125 25.90234375 103.03125 C27.56885303 106.89653769 29.32593045 110.67990918 31.25390625 114.421875 C33 118 33 118 33.0625 120.625 C31.02597629 125.17722948 27.48090139 129.69165686 23 132 C18.25008413 131.64276399 15.54920371 130.32623767 11.8125 127.4375 C10.85730469 126.71175781 9.90210938 125.98601562 8.91796875 125.23828125 C7.95503906 124.49964844 6.99210937 123.76101562 6 123 C4.2118228 121.70350684 2.42018722 120.41176923 0.625 119.125 C-4.65594787 115.29119854 -9.8123058 111.31039995 -14.95703125 107.296875 C-17.90943973 105.06835615 -20.90279847 103.01850503 -24 101 C-24.12117188 102.21816406 -24.24234375 103.43632812 -24.3671875 104.69140625 C-24.53613072 106.31513829 -24.70541996 107.93883435 -24.875 109.5625 C-24.95363281 110.36236328 -25.03226563 111.16222656 -25.11328125 111.98632812 C-26.46627743 124.73571518 -26.46627743 124.73571518 -29.734375 127.4296875 C-32.64128397 128.16142665 -35.25465761 128.19011614 -38.25 128.125 C-39.32765625 128.10695312 -40.4053125 128.08890625 -41.515625 128.0703125 C-42.33546875 128.04710937 -43.1553125 128.02390625 -44 128 C-46.43378195 122.70694358 -48.08081453 117.49765585 -49.4609375 111.84375 C-49.67535492 110.97391479 -49.88977234 110.10407959 -50.11068726 109.20788574 C-52.39387821 99.71286285 -54.04548739 90.13246755 -55.625 80.5 C-55.91337615 78.7850407 -56.20243853 77.07019664 -56.4921875 75.35546875 C-57.65843617 68.40103213 -58.81621099 61.4519089 -59.76147461 54.46337891 C-59.88658417 53.55970581 -60.01169373 52.65603271 -60.14059448 51.72497559 C-60.3758993 50.00563956 -60.6010306 48.28486791 -60.81399536 46.56262207 C-61.77172945 39.60922251 -64.4540439 35.30521727 -69 30 C-73.14155703 24.02287538 -75.72847092 19.3312851 -76 12 C-53.78449718 -3.07148114 -25.5389937 -8.42462768 0 0 Z " fill="#FCFEFE" transform="translate(130,55)"/>
<path d="M0 0 C4.71504123 3.95043995 6.77185924 7.93493552 8 14 C8.43431613 19.77692908 8.41079981 25.53599294 8.38818359 31.32641602 C8.39225357 33.07829108 8.39759784 34.83016358 8.40411377 36.58203125 C8.41774147 41.3195522 8.41250782 46.05687624 8.40297651 50.79440045 C8.39535751 55.76210369 8.40243163 60.72979058 8.40713501 65.69749451 C8.41258553 74.03721124 8.40541888 82.37684814 8.39111328 90.71655273 C8.37478278 100.34771765 8.38008103 109.97869206 8.3965925 119.60985237 C8.41022101 127.89206016 8.4121205 136.17421071 8.40427649 144.45642608 C8.39960818 149.39737471 8.39895206 154.33823389 8.40888596 159.27917671 C8.41757341 163.92418176 8.41150126 168.56894191 8.39420319 173.21392059 C8.39024807 174.91503684 8.39135564 176.61617382 8.39799118 178.31728172 C8.40623553 180.64612745 8.39585124 182.97419699 8.38095093 185.30299377 C8.37981985 186.60393762 8.37868877 187.90488146 8.37752342 189.24524784 C7.93345387 193.66185097 6.71176283 196.91950667 5 201 C4.10406673 197.78941398 4.17063298 196.20941461 5 193 C5.09326459 190.55058977 5.13491049 188.13023224 5.12698364 185.6811676 C5.12854363 184.94215475 5.13010362 184.20314191 5.13171089 183.44173473 C5.13570072 180.96447282 5.13253902 178.48727214 5.12939453 176.01000977 C5.13074948 174.23430343 5.13252994 172.45859737 5.13470459 170.68289185 C5.13926815 165.85855969 5.13749368 161.03424889 5.1343255 156.20991635 C5.13179597 151.16337606 5.13414114 146.11683761 5.13571167 141.07029724 C5.13753179 132.59398062 5.13513135 124.11767272 5.13037109 115.64135742 C5.12493053 105.84045194 5.12669027 96.03956727 5.1321975 86.2386623 C5.13673519 77.82668173 5.1373759 69.41470742 5.13475883 61.00272602 C5.13319945 55.97743097 5.132993 50.9521457 5.13629532 45.92685127 C5.13918348 41.20156633 5.1371809 36.4763082 5.13140106 31.75102615 C5.13007847 30.0163992 5.1304591 28.28176999 5.13266373 26.54714394 C5.13539491 24.18000413 5.13196993 21.81295036 5.12698364 19.44581604 C5.12921436 18.75884708 5.13144509 18.07187813 5.13374341 17.36409193 C5.11910978 13.78398881 4.84224158 10.48258992 4 7 C3.34 7 2.68 7 2 7 C0 4 0 4 0 0 Z " fill="#97C5F5" transform="translate(203,15)"/>
<path d="M0 0 C0.99 0.495 0.99 0.495 2 1 C2.00219984 2.3740983 2.00219984 2.3740983 2.00444412 3.77595615 C2.04149996 26.06853611 2.10049852 48.36096388 2.18390274 70.65342045 C2.22370765 81.43390718 2.25609279 92.21432076 2.27099609 102.99487305 C2.28400505 112.39149303 2.31095048 121.78795216 2.35461307 131.18448156 C2.37724479 136.15964167 2.39290965 141.13460326 2.39188385 146.10981941 C2.39113826 150.79419315 2.40904872 155.47812773 2.44116783 160.16238785 C2.44967529 161.88002583 2.45141101 163.59771303 2.44580269 165.31536293 C2.43915376 167.66498197 2.45710281 170.01320739 2.48101807 172.36268616 C2.48470524 173.67624116 2.48839241 174.98979616 2.49219131 176.34315586 C3.11312359 180.81462835 4.65344412 183.18310632 7 187 C6.75 189.4375 6.75 189.4375 6 191 C5.18357746 189.73168307 4.37200895 188.46024069 3.5625 187.1875 C3.11003906 186.47980469 2.65757813 185.77210938 2.19140625 185.04296875 C-0.16676794 180.99927988 -0.13934831 177.33941704 -0.12025452 172.80574036 C-0.12110894 172.06813766 -0.12196337 171.33053496 -0.12284368 170.57058066 C-0.12449433 168.09235805 -0.11898388 165.61420273 -0.11352539 163.13598633 C-0.1132434 161.36216737 -0.11340148 159.5883483 -0.1139679 157.81452942 C-0.11425542 152.99253662 -0.10836592 148.17056858 -0.10139394 143.34858155 C-0.09515295 138.31170924 -0.09455601 133.2748364 -0.09336853 128.23796082 C-0.09025742 118.69699365 -0.08204698 109.1560379 -0.07201904 99.61507577 C-0.06085108 88.75427122 -0.05534573 77.89346613 -0.05032361 67.03265727 C-0.0398642 44.68843184 -0.022269 22.34421656 0 0 Z " fill="#7EB2E8" transform="translate(11,30)"/>
<path d="M0 0 C8.97819315 1.30218069 8.97819315 1.30218069 12.5625 3.75 C14.40182509 6.62894363 14.93018534 8.5790819 15 12 C13.07730868 17.25535626 8.75624147 19.54162297 4 22 C-2.8247012 25 -2.8247012 25 -6 25 C-5.37571782 22.33316351 -4.75059174 19.66652933 -4.125 17 C-3.95097656 16.25621094 -3.77695313 15.51242188 -3.59765625 14.74609375 C-2.44097218 9.81947641 -1.23786742 4.90686184 0 0 Z " fill="#71B6FB" transform="translate(119,96)"/>
<path d="M0 0 C6.52225102 0.06209683 13.04451788 0.10830157 19.56692219 0.15083027 C24.65834755 0.18604182 29.74966419 0.23025822 34.84099388 0.27718163 C37.2511267 0.29813239 39.66128784 0.31606222 42.07146645 0.33083534 C45.39400064 0.35232685 48.71618332 0.38619071 52.03857422 0.42333984 C53.01738052 0.42707108 53.99618683 0.43080231 55.00465393 0.43464661 C59.54686651 0.498123 63.25407259 0.58517859 67.36938477 2.75805664 C66.70938477 3.41805664 66.04938477 4.07805664 65.36938477 4.75805664 C64.02265123 4.48383471 62.69167271 4.13281453 61.36938477 3.75805664 C45.28003873 2.21068585 29.01858608 2.54184637 12.87036276 2.45473361 C8.93862934 2.43257364 5.00693086 2.40533458 1.07522583 2.37867737 C-6.34025898 2.32914963 -13.7557636 2.2840661 -21.17128646 2.240655 C-29.62622152 2.19093703 -38.08112148 2.13614931 -46.53602242 2.08097541 C-63.9008541 1.96776978 -81.26571858 1.86080177 -98.63061523 1.75805664 C-98.63061523 2.41805664 -98.63061523 3.07805664 -98.63061523 3.75805664 C-103.16763017 5.20990142 -106.81123 5.9931486 -111.63061523 5.75805664 C-111.63061523 6.41805664 -111.63061523 7.07805664 -111.63061523 7.75805664 C-113.25687927 9.14038107 -114.92311544 10.47743179 -116.63061523 11.75805664 C-116.38079287 8.09399528 -116.04524556 6.22294519 -113.56811523 3.44555664 C-107.56534705 -0.0028421 -99.82351676 0.57042756 -93.03222656 0.43066406 C-92.09886412 0.40895205 -91.16550167 0.38724003 -90.20385551 0.36487007 C-87.10271303 0.29585164 -84.00149632 0.23496117 -80.90014648 0.17602539 C-79.8153129 0.15457144 -78.73047932 0.13311749 -77.61277199 0.11101341 C-51.73998632 -0.38495788 -25.87484745 -0.24750103 0 0 Z " fill="#81AFE0" transform="translate(130.630615234375,8.241943359375)"/>
<path d="M0 0 C1.48034764 0.47550561 2.95925021 0.95551216 4.4375 1.4375 C5.26121094 1.70433594 6.08492187 1.97117188 6.93359375 2.24609375 C9 3 9 3 10 4 C12.11328241 4.10916779 14.23025867 4.14691976 16.34632874 4.15821838 C17.35216425 4.16562535 17.35216425 4.16562535 18.37831968 4.17318195 C20.64161479 4.18862909 22.90488139 4.19693695 25.16821289 4.20532227 C26.78410598 4.21489513 28.39999653 4.22490485 30.0158844 4.23532104 C34.41649512 4.26244031 38.81711665 4.28341172 43.21776509 4.30332303 C47.81157368 4.32513943 52.4053487 4.35254931 56.99913025 4.37937927 C65.70432338 4.42936512 74.40953508 4.47428201 83.11476463 4.51740164 C93.02272301 4.56672377 102.93064773 4.62166047 112.83857358 4.67708123 C133.22568438 4.79099169 153.6128273 4.89781089 174 5 C174 5.33 174 5.66 174 6 C74.16754626 7.29388635 74.16754626 7.29388635 38.5864563 6.8588562 C35.96109773 6.82813476 33.33565456 6.80390644 30.71017456 6.78640747 C27.13166923 6.75954533 23.55460509 6.70673918 19.9765625 6.64453125 C18.9635759 6.64012024 17.95058929 6.63570923 16.90690613 6.63116455 C10.57459893 6.47611185 6.41735971 5.34481812 1 2 C0.67 1.34 0.34 0.68 0 0 Z " fill="#84B0DD" transform="translate(18,221)"/>
<path d="M0 0 C0.66 0 1.32 0 2 0 C0.96563775 2.99965054 0.10013592 3.93900945 -2.65408516 5.61654377 C-6.3668487 7.15168321 -8.90652453 7.35672437 -12.90963745 7.32279968 C-13.58038303 7.3212794 -14.25112862 7.31975913 -14.94219983 7.31819278 C-17.17649126 7.30946409 -19.40994855 7.27912027 -21.64404297 7.2487793 C-23.25081072 7.23806474 -24.85758787 7.22868946 -26.46437073 7.22055054 C-30.81737045 7.19471527 -35.17000061 7.15017408 -39.52280569 7.10225272 C-44.07511126 7.05532323 -48.62752858 7.02562621 -53.17996216 6.99409485 C-61.79659814 6.93179846 -70.41302198 6.85402282 -79.02947724 6.77067453 C-88.84070595 6.67652356 -98.65204628 6.59964582 -108.46343398 6.52421319 C-128.64247254 6.36868452 -148.82127269 6.19148268 -169 6 C-169 5.67 -169 5.34 -169 5 C-168.1645506 4.99576806 -167.3291012 4.99153612 -166.46833515 4.98717594 C-146.14598431 4.88389992 -125.82366828 4.77526669 -105.50137806 4.66066074 C-95.67370094 4.60536771 -85.84602018 4.55189214 -76.01831055 4.50268555 C-67.45312276 4.4597957 -58.88796127 4.41350559 -50.32281417 4.36312145 C-45.78707981 4.33655921 -41.25135054 4.3117071 -36.71558571 4.29092598 C-32.4466835 4.27131381 -28.17783119 4.24715639 -23.90897369 4.21950912 C-22.34206487 4.21016293 -20.77514512 4.20247896 -19.20821953 4.19658089 C-17.06855279 4.18827827 -14.92900578 4.17399021 -12.78938293 4.15821838 C-10.99326931 4.14853956 -10.99326931 4.14853956 -9.16087055 4.1386652 C-6.32080523 4.0140735 -3.76084508 3.65189828 -1 3 C-0.67 2.01 -0.34 1.02 0 0 Z " fill="#74B4F5" transform="translate(201,220)"/>
<path d="M0 0 C0.495 0.99 0.495 0.99 1 2 C-14.51 2 -30.02 2 -46 2 C-46 2.66 -46 3.32 -46 4 C-50.53701494 5.45184478 -54.18061476 6.23509196 -59 6 C-59 6.66 -59 7.32 -59 8 C-60.62626404 9.38232443 -62.2925002 10.71937515 -64 12 C-63.75017763 8.33593864 -63.41463033 6.46488855 -60.9375 3.6875 C-54.38304502 -0.0778252 -45.66095989 0.80078637 -38.28125 0.68359375 C-37.18276733 0.66281265 -36.08428467 0.64203156 -34.95251465 0.62062073 C-31.46840231 0.55561377 -27.98421924 0.49646889 -24.5 0.4375 C-22.12759706 0.39426825 -19.75520109 0.35065252 -17.3828125 0.30664062 C-11.58861487 0.19998294 -5.79434801 0.09812885 0 0 Z " fill="#84B2E0" transform="translate(78,8)"/>
<path d="M0 0 C0.33 0.66 0.66 1.32 1 2 C-0.65 3.32 -2.3 4.64 -4 6 C-3.71640113 7.4391134 -3.42278601 8.87625518 -3.125 10.3125 C-2.88136719 11.51326172 -2.88136719 11.51326172 -2.6328125 12.73828125 C-2.05521001 15.25301118 -2.05521001 15.25301118 0 18 C0.53965533 19.46516421 1.03728477 20.9462493 1.5 22.4375 C2.24104698 24.81771068 2.95085598 26.91084345 4.15625 29.09765625 C5 31 5 31 4 34 C-7.2861835 10.65195029 -7.2861835 10.65195029 -6.8203125 4.70703125 C-5.44512517 1.8453319 -2.80416863 1.19326325 0 0 Z " fill="#84B8EE" transform="translate(155,132)"/>
<path d="M0 0 C0.66 0 1.32 0 2 0 C4.16480507 9.51579783 3.79547152 16.68594019 1 26 C0.78472656 26.78246094 0.56945312 27.56492187 0.34765625 28.37109375 C-0.07940034 29.92034283 -0.53494197 31.46173114 -1 33 C-1.99 33 -2.98 33 -4 33 C-3.70351562 32.28070313 -3.40703125 31.56140625 -3.1015625 30.8203125 C0.88827989 20.60518412 2.34056265 10.82510226 0 0 Z " fill="#7FB6F0" transform="translate(167,92)"/>
<path d="M0 0 C1.33877662 4.01632987 0.49049413 6.09632491 -1 10 C-4.23174752 12.27336722 -7.25105881 12.29822258 -11.125 12.3125 C-12.17945312 12.32925781 -13.23390625 12.34601563 -14.3203125 12.36328125 C-15.20460938 12.24339844 -16.08890625 12.12351563 -17 12 C-17.66 11.01 -18.32 10.02 -19 9 C-18.67 8.01 -18.34 7.02 -18 6 C-18 6.66 -18 7.32 -18 8 C-17.34 8 -16.68 8 -16 8 C-16 8.99 -16 9.98 -16 11 C-14.22868439 10.69024532 -12.45796222 10.37709575 -10.6875 10.0625 C-9.70136719 9.88847656 -8.71523437 9.71445313 -7.69921875 9.53515625 C-4.91810787 9.04253153 -4.91810787 9.04253153 -2 8 C-1.7834375 6.576875 -1.7834375 6.576875 -1.5625 5.125 C-1 2 -1 2 0 0 Z " fill="#E0F7FE" transform="translate(103,171)"/>
<path d="M0 0 C0.33 0 0.66 0 1 0 C1.5644718 7.33813334 -0.44672896 13.16088115 -3 20 C-1.63875 19.2265625 -1.63875 19.2265625 -0.25 18.4375 C3.16419665 16.92737456 3.68604014 16.91215665 7 18 C5.3767313 18.6708712 3.75132422 19.33657029 2.125 20 C0.76761719 20.556875 0.76761719 20.556875 -0.6171875 21.125 C-3 22 -3 22 -5 22 C-4.72285156 20.83082031 -4.44570312 19.66164063 -4.16015625 18.45703125 C-3.79422599 16.90886477 -3.42834307 15.36068709 -3.0625 13.8125 C-2.88009766 13.04357422 -2.69769531 12.27464844 -2.50976562 11.48242188 C-1.60879887 7.66559908 -0.73362003 3.85343574 0 0 Z " fill="#85B8EE" transform="translate(118,99)"/>
<path d="M0 0 C0 0.33 0 0.66 0 1 C-1.26714844 1.13277344 -2.53429687 1.26554687 -3.83984375 1.40234375 C-5.53906399 1.58071494 -7.23828266 1.75910116 -8.9375 1.9375 C-9.76830078 2.02451172 -10.59910156 2.11152344 -11.45507812 2.20117188 C-16.97238544 2.78081117 -22.48680174 3.38247729 -28 4 C-28 3.34 -28 2.68 -28 2 C-20.22637706 -1.88681147 -8.52850387 -0.09523143 0 0 Z " fill="#7BB6F0" transform="translate(112,50)"/>
<path d="M0 0 C0.66 0 1.32 0 2 0 C1.00745154 2.87839052 0.08852389 3.94061055 -2.46875 5.65625 C-7.15014106 7.4376643 -10.95004506 7.1065662 -15.875 6.6875 C-16.75414062 6.62626953 -17.63328125 6.56503906 -18.5390625 6.50195312 C-20.69382674 6.34971435 -22.84712169 6.1769197 -25 6 C-25 5.67 -25 5.34 -25 5 C-23.02966797 4.90912109 -23.02966797 4.90912109 -21.01953125 4.81640625 C-19.28384459 4.73196744 -17.54816802 4.64732112 -15.8125 4.5625 C-14.94818359 4.52318359 -14.08386719 4.48386719 -13.19335938 4.44335938 C-9.04085878 4.23652984 -5.05462138 3.99896469 -1 3 C-0.67 2.01 -0.34 1.02 0 0 Z " fill="#7EB9F2" transform="translate(201,220)"/>
<path d="M0 0 C0.33 0 0.66 0 1 0 C1.15855469 0.6290625 1.31710938 1.258125 1.48046875 1.90625 C2.96752312 7.36152129 4.78151918 11.75628719 8.01171875 16.40625 C9 18 9 18 9 20 C8.01 19.67 7.02 19.34 6 19 C5.67 19.33 5.34 19.66 5 20 C4.34 19.67 3.68 19.34 3 19 C3.2475 18.484375 3.495 17.96875 3.75 17.4375 C4.08494863 14.17175082 2.61976744 12.63281887 0.92578125 9.94921875 C-0.65661091 6.61751543 -0.25468606 3.62927638 0 0 Z " fill="#85BCF4" transform="translate(53,67)"/>
<path d="M0 0 C3.5786304 1.65167557 6.74820188 3.78286492 10 6 C9.01 6.33 8.02 6.66 7 7 C7 6.34 7 5.68 7 5 C6.071875 4.7834375 6.071875 4.7834375 5.125 4.5625 C3 4 3 4 1 3 C1 5.97 1 8.94 1 12 C0.34 11.67 -0.32 11.34 -1 11 C-1.14285714 3.57142857 -1.14285714 3.57142857 0 0 Z " fill="#7FB6ED" transform="translate(106,156)"/>
<path d="M0 0 C0.33 0 0.66 0 1 0 C1.268125 1.216875 1.53625 2.43375 1.8125 3.6875 C2.49797045 6.50388945 3.14324223 8.23343179 4.6875 10.75 C6 13 6 13 5.58203125 15.140625 C5.38996094 15.75421875 5.19789062 16.3678125 5 17 C1.15139059 11.66023196 -0.76739727 7.6291777 -1 1 C-0.67 0.67 -0.34 0.34 0 0 Z " fill="#93C2F2" transform="translate(12,204)"/>
<path d="M0 0 C1.67542976 0.28604898 3.34385343 0.61781233 5 1 C2.38333372 3.61666628 -0.64348017 4.71634007 -4 6.125 C-4.64195313 6.40214844 -5.28390625 6.67929687 -5.9453125 6.96484375 C-10.73745382 9 -10.73745382 9 -13 9 C-13 8.34 -13 7.68 -13 7 C-9.39910661 4.35228427 -6.34746361 3.69164194 -2 3 C-1.67 2.34 -1.34 1.68 -1 1 C-0.67 0.67 -0.34 0.34 0 0 Z " fill="#7DB6ED" transform="translate(69,56)"/>
<path d="M0 0 C1.36125 0.37125 1.36125 0.37125 2.75 0.75 C-1 3.75 -1 3.75 -3.25 3.75 C-3.25 4.41 -3.25 5.07 -3.25 5.75 C-4.87626404 7.13232443 -6.5425002 8.46937515 -8.25 9.75 C-7.9389194 6.32811345 -7.53534154 4.16216 -5.5625 1.3125 C-3.25 -0.25 -3.25 -0.25 0 0 Z " fill="#EBF8FE" transform="translate(22.25,10.25)"/>
<path d="M0 0 C0.66 0.66 1.32 1.32 2 2 C-0.5461959 3.27309795 -1.31160849 2.72961012 -4 2 C-5.439735 1.85966422 -6.88337149 1.75583143 -8.328125 1.68359375 C-9.52695313 1.62075195 -9.52695313 1.62075195 -10.75 1.55664062 C-11.9875 1.49766602 -11.9875 1.49766602 -13.25 1.4375 C-14.09046875 1.39431641 -14.9309375 1.35113281 -15.796875 1.30664062 C-17.86440671 1.20091457 -19.93218281 1.09998705 -22 1 C-22 0.67 -22 0.34 -22 0 C-19.45873828 -0.19617816 -16.91739541 -0.38217248 -14.375 -0.5625 C-13.66214844 -0.61857422 -12.94929687 -0.67464844 -12.21484375 -0.73242188 C-7.98363167 -1.02356032 -4.15840989 -1.0427244 0 0 Z " fill="#84BBF5" transform="translate(196,10)"/>
<path d="M0 0 C4.4008703 3.82180842 5.80805531 6.47371099 7 12 C6.01 11.67 5.02 11.34 4 11 C4 9.68 4 8.36 4 7 C3.34 7 2.68 7 2 7 C0 4 0 4 0 0 Z " fill="#96C5F1" transform="translate(203,15)"/>
<path d="M0 0 C1.62752231 0.25523874 3.25203196 0.52974494 4.875 0.8125 C6.23238281 1.03873047 6.23238281 1.03873047 7.6171875 1.26953125 C10 2 10 2 12 5 C6.06 4.01 6.06 4.01 0 3 C0 2.01 0 1.02 0 0 Z " fill="#7EB3EB" transform="translate(119,96)"/>
<path d="M0 0 C0 0.99 0 1.98 0 3 C-7.42857143 5.42857143 -7.42857143 5.42857143 -11 4 C-9.68 3.67 -8.36 3.34 -7 3 C-7 2.34 -7 1.68 -7 1 C-4 0 -4 0 0 0 Z " fill="#8DBEF2" transform="translate(32,9)"/>
<path d="M0 0 C0.66 0 1.32 0 2 0 C1.40546697 9.59453303 1.40546697 9.59453303 -2 13 C-3.32 12.67 -4.64 12.34 -6 12 C-4.7934375 11.2575 -4.7934375 11.2575 -3.5625 10.5 C-0.01911662 7.04304061 -0.2426059 4.85211791 0 0 Z " fill="#E5F9FF" transform="translate(133,103)"/>
<path d="M0 0 C1.46224799 0.42423244 2.91973412 0.86490245 4.375 1.3125 C5.18710937 1.55613281 5.99921875 1.79976562 6.8359375 2.05078125 C9 3 9 3 11 6 C6.14922412 4.88059018 3.222107 3.8665284 0 0 Z " fill="#A2CBF4" transform="translate(18,221)"/>
<path d="M0 0 C2.15973378 3.23960066 2.75921963 5.14751405 3 9 C2.01 9.99 1.02 10.98 0 12 C0 8.04 0 4.08 0 0 Z " fill="#DEF5FE" transform="translate(160,168)"/>
<path d="M0 0 C0.66 0 1.32 0 2 0 C1.375 1.875 1.375 1.875 0 4 C-3.125 5.25 -3.125 5.25 -6 6 C-5.67 5.01 -5.34 4.02 -5 3 C-3.68 3 -2.36 3 -1 3 C-0.67 2.01 -0.34 1.02 0 0 Z " fill="#92C2F2" transform="translate(201,220)"/>
<path d="M0 0 C0.66 0.33 1.32 0.66 2 1 C1.319375 1.61875 1.319375 1.61875 0.625 2.25 C-1.09686822 3.92669589 -1.09686822 3.92669589 -2 6.125 C-3 8 -3 8 -6 9 C-4.79618552 6.50638429 -3.54571278 4.31856917 -2 2 C-1.34 2 -0.68 2 0 2 C0 1.34 0 0.68 0 0 Z " fill="#94C3F3" transform="translate(19,14)"/>
<path d="M0 0 C1.80330533 3.60661066 2.46599103 6.08393425 3 10 C2.01 9.67 1.02 9.34 0 9 C0 6.03 0 3.06 0 0 Z " fill="#8FBCED" transform="translate(82,172)"/>
<path d="M0 0 C0.33 0.99 0.66 1.98 1 3 C-0.65 4.32 -2.3 5.64 -4 7 C-4.66 6.67 -5.32 6.34 -6 6 C-4.02 4.02 -2.04 2.04 0 0 Z " fill="#80B5ED" transform="translate(162,125)"/>
<path d="" fill="#FFFFFF" transform="translate(0,0)"/>
<path d="" fill="#00FFFF" transform="translate(0,0)"/>
<path d="" fill="#FFFFFF" transform="translate(0,0)"/>
<path d="" fill="#FFFFFF" transform="translate(0,0)"/>
<path d="" fill="#FFFFFF" transform="translate(0,0)"/>
<path d="" fill="#FFFFFF" transform="translate(0,0)"/>
<path d="" fill="#FFFFFF" transform="translate(0,0)"/>
<path d="" fill="#FFFFFF" transform="translate(0,0)"/>
<path d="" fill="#FFFFFF" transform="translate(0,0)"/>
<path d="" fill="#FFFFFF" transform="translate(0,0)"/>
<path d="" fill="#FFFFFF" transform="translate(0,0)"/>
<path d="" fill="#FFFFFF" transform="translate(0,0)"/>
<path d="" fill="#FFFFFF" transform="translate(0,0)"/>
<path d="" fill="#FFFFFF" transform="translate(0,0)"/>
<path d="" fill="#FFFFFF" transform="translate(0,0)"/>
<path d="" fill="#FFFFFF" transform="translate(0,0)"/>
<path d="" fill="#FFFFFF" transform="translate(0,0)"/>
<path d="" fill="#FFFFFF" transform="translate(0,0)"/>
<path d="" fill="#FFFFFF" transform="translate(0,0)"/>
<path d="" fill="#FFFFFF" transform="translate(0,0)"/>
<path d="" fill="#FFFFFF" transform="translate(0,0)"/>
<path d="" fill="#FFFFFF" transform="translate(0,0)"/>
</svg>
