<?xml version="1.0" encoding="UTF-8"?>
<svg version="1.1" xmlns="http://www.w3.org/2000/svg" width="1069" height="233">
<path d="M0 0 C1.60424102 -0.00599434 3.20847918 -0.01280195 4.81271362 -0.02035522 C9.14311465 -0.03792197 13.4734365 -0.0427064 17.80386972 -0.0439868 C20.51329644 -0.0454133 23.22270333 -0.04969213 25.93212509 -0.05498123 C35.39486713 -0.07344469 44.85755304 -0.08165573 54.3203125 -0.08007812 C63.12617724 -0.07887501 71.93179758 -0.10002009 80.73760045 -0.13156545 C88.31494612 -0.15773828 95.89221194 -0.16844513 103.46960247 -0.16716731 C107.98805353 -0.16665834 112.50628671 -0.17230676 117.02469254 -0.19352341 C121.2716809 -0.21292501 125.51824373 -0.21301733 129.76524734 -0.19849014 C131.3196322 -0.19640392 132.87404386 -0.20109188 134.42838287 -0.21321106 C143.55863413 -0.27976784 150.59418081 -0.11809541 157.92529297 5.93115234 C158.36228516 6.46224609 158.79927734 6.99333984 159.24951172 7.54052734 C159.92433594 8.32169922 159.92433594 8.32169922 160.61279297 9.11865234 C165.88664475 17.76839155 165.37015745 26.52803977 165.34106445 36.30395508 C165.3467723 38.03435709 165.35373816 39.76475535 165.36186218 41.49514771 C165.3797626 46.17906776 165.37863112 50.86280016 165.3729198 55.54674411 C165.36982353 59.46318816 165.37592525 63.3795964 165.38195854 67.29603535 C165.39599184 76.5381263 165.39445234 85.78012479 165.38305664 95.0222168 C165.37157552 104.54375099 165.38565373 114.0650035 165.41245311 123.58650059 C165.43463268 131.77444068 165.44124244 139.96229251 165.4353767 148.15026051 C165.43201146 153.03484251 165.4343935 157.91924396 165.45162773 162.80380058 C165.46713086 167.39796116 165.46310407 171.99170543 165.44432259 176.58584976 C165.44064607 178.26719777 165.44371776 179.94857686 165.45420837 181.62989616 C165.54812773 197.93285649 165.54812773 197.93285649 160.93701172 205.29052734 C160.35951172 206.21865234 159.78201172 207.14677734 159.18701172 208.10302734 C151.58173554 215.49704585 142.84162766 214.86941867 132.91748047 214.82397461 C131.29382546 214.83103974 129.67017704 214.83978725 128.04653931 214.8500824 C123.65394536 214.87251797 119.26171271 214.86965064 114.8690834 214.86076093 C111.1960962 214.85563891 107.52317617 214.86295332 103.85019588 214.870233 C95.18343635 214.887213 86.51685298 214.88368477 77.85009766 214.86694336 C68.92036396 214.85001665 59.99111891 214.86586834 51.06143856 214.89816624 C43.38219819 214.92488521 35.70310972 214.93213213 28.02382755 214.92365116 C23.44272575 214.91872955 18.861918 214.92089622 14.28085327 214.94143867 C9.9730444 214.95983265 5.66593721 214.95379219 1.35816574 214.92923927 C-0.21878334 214.92424345 -1.79578624 214.92768922 -3.37269211 214.94038773 C-12.76810894 215.01003817 -19.6351015 214.62692944 -26.56632996 207.81252384 C-32.10343237 201.66853716 -33.1867051 194.80603569 -33.18997192 186.76446533 C-33.19279175 185.68941742 -33.19561157 184.61436951 -33.19851685 183.50674438 C-33.19649261 182.34130096 -33.19446838 181.17585754 -33.19238281 179.97509766 C-33.19413513 178.73470734 -33.19588745 177.49431702 -33.19769287 176.21633911 C-33.20133956 172.81313502 -33.20048061 169.4099918 -33.19731379 166.00679111 C-33.19476078 162.39895617 -33.19713768 158.79112363 -33.19869995 155.18328857 C-33.20052151 149.08686873 -33.19812444 142.99046097 -33.19335938 136.89404297 C-33.18858975 130.7228109 -33.18847933 124.55160307 -33.19335938 118.38037109 C-33.23793198 60.20116217 -33.23793198 60.20116217 -32.68017578 33.52490234 C-32.66503056 32.6756443 -32.64988533 31.82638626 -32.63428116 30.95139313 C-32.27217135 11.61684419 -32.27217135 11.61684419 -28.56298828 4.35302734 C-21.1968418 -1.72404351 -9.06041294 -0.00679468 0 0 Z " fill="#6FB6FD" transform="translate(43.06298828125,8.70947265625)"/>
<path d="M0 0 C1.22396484 0.97259766 1.22396484 0.97259766 2.47265625 1.96484375 C3.31828125 2.60421875 4.16390625 3.24359375 5.03515625 3.90234375 C14.3334352 11.77011825 18.89313636 22.42329904 19.91796875 34.37109375 C20.44120524 44.04127919 19.45620893 51.97052489 13.47265625 59.96484375 C9.56270103 64.1786815 5.64175343 67.45808189 0.47265625 69.96484375 C2.34901161 77.61531088 4.84560264 84.70633617 8.03515625 91.90234375 C8.43412109 92.82080078 8.83308594 93.73925781 9.24414062 94.68554688 C11.30496433 99.45082866 11.30496433 99.45082866 13.60913086 104.09985352 C14.85504141 106.79069623 14.4213603 108.18649618 13.47265625 110.96484375 C10.78941621 115.03939344 7.78463688 117.67685403 3.47265625 119.96484375 C-0.51857779 119.62088374 -2.95930623 118.24639638 -6.15234375 115.90234375 C-7.0134375 115.27714844 -7.87453125 114.65195313 -8.76171875 114.0078125 C-10.13070312 112.99654297 -10.13070312 112.99654297 -11.52734375 111.96484375 C-13.48554622 110.5479962 -15.44387815 109.13132756 -17.40234375 107.71484375 C-19.11299293 106.4680149 -20.82154775 105.21830407 -22.52734375 103.96484375 C-23.29304688 103.43375 -24.05875 102.90265625 -24.84765625 102.35546875 C-25.40195313 101.8965625 -25.95625 101.43765625 -26.52734375 100.96484375 C-26.52734375 100.30484375 -26.52734375 99.64484375 -26.52734375 98.96484375 C-27.61015625 98.59359375 -27.61015625 98.59359375 -28.71484375 98.21484375 C-31.80747252 96.84034208 -33.9272127 95.12104999 -36.52734375 92.96484375 C-38.50213367 91.58904224 -40.51004863 90.27843127 -42.52734375 88.96484375 C-42.50414062 89.60808594 -42.4809375 90.25132812 -42.45703125 90.9140625 C-42.30915231 98.31857213 -42.40323385 105.81917308 -44.52734375 112.96484375 C-48.4646264 116.6068302 -53.09967884 116.31574085 -58.2578125 116.36328125 C-60.52734375 115.96484375 -60.52734375 115.96484375 -62.21484375 114.84375 C-65.23067716 110.52644086 -65.78517348 104.71936697 -66.92529297 99.63720703 C-67.34029662 97.79510243 -67.76434832 95.95502078 -68.19580078 94.11669922 C-70.96327536 82.31070973 -73.37433308 70.5529765 -75.03515625 58.54296875 C-75.16058807 57.64803711 -75.2860199 56.75310547 -75.41525269 55.83105469 C-76.03494283 51.38116645 -76.62491621 46.93017108 -77.17138672 42.47070312 C-78.71518855 30.59171868 -78.71518855 30.59171868 -85.52734375 20.96484375 C-90.00623445 14.71288375 -93.37962004 9.79420063 -93.52734375 1.96484375 C-65.56755461 -16.40151887 -27.68352266 -21.08624275 0 0 Z " fill="#FCFEFE" transform="translate(146.52734375,64.03515625)"/>
<path d="M0 0 C2.80991126 1.17834988 4.16466955 -0.06316327 6.9375 -1.1875 C17.17381713 -3.11068685 25.01398236 -1.71193313 33.89453125 3.59375 C35.86807189 4.77108209 37.87094863 5.8094099 39.9375 6.8125 C40.37578125 6.41417969 40.8140625 6.01585938 41.265625 5.60546875 C48.13428217 -0.13237291 55.96135315 -2.62520871 64.9375 -2.25 C74.32272317 -0.81656559 81.95678513 4.01815254 88.21875 10.98046875 C93.20045766 19.18896433 94.5312283 27.21827096 94.3984375 36.68359375 C94.39752106 37.76834488 94.39660461 38.85309601 94.3956604 39.97071838 C94.38966329 42.24216135 94.37403614 44.51359787 94.34912109 46.78491211 C94.31234035 50.26510588 94.30810428 53.74424039 94.30859375 57.22460938 C94.29877103 59.44011338 94.28711773 61.6556102 94.2734375 63.87109375 C94.27121185 64.90962997 94.26898621 65.9481662 94.26669312 67.01817322 C94.25393341 67.98340408 94.24117371 68.94863495 94.22802734 69.94311523 C94.21659195 71.21239113 94.21659195 71.21239113 94.20492554 72.50730896 C93.9117933 75.03409007 93.25805451 76.65044118 91.9375 78.8125 C88.9716844 81.09389661 85.69526933 81.17768733 82.03515625 81.46875 C78.54053067 80.37545932 76.63953494 77.91941934 74.9375 74.8125 C74.235997 71.25548835 74.28661543 67.77220931 74.3359375 64.15625 C74.32793121 63.13575562 74.31992493 62.11526123 74.31167603 61.06384277 C74.28865095 57.81298827 74.29805375 54.56338762 74.3125 51.3125 C74.31635205 48.06184761 74.31287319 44.81174776 74.29190063 41.56115723 C74.27984668 39.54222903 74.2824224 37.52314551 74.30160522 35.50427246 C74.28047445 30.17978227 73.9561368 26.4030958 70.9375 21.8125 C67.31063424 18.61232433 63.8291426 18.2818343 59.15625 18.46875 C55.54169722 19.02875113 53.56627883 20.31195428 50.9375 22.8125 C48.73434576 28.59818686 48.6719106 33.989829 48.69921875 40.12890625 C48.68380816 42.12956415 48.66750521 44.13021533 48.65039062 46.13085938 C48.63391155 49.26016132 48.62503146 52.38896855 48.63208008 55.51831055 C48.63470081 58.55573694 48.60658933 61.59167849 48.57421875 64.62890625 C48.58442551 65.56029922 48.59463226 66.4916922 48.60514832 67.4513092 C48.53883211 71.86588186 48.3529629 74.88713807 45.52661133 78.40356445 C42.9375 80.8125 42.9375 80.8125 40.875 81.5390625 C36.0788098 81.2876493 33.33047731 80.51392979 29.9375 76.8125 C28.95674195 73.89321462 28.81328079 71.20417424 28.81152344 68.13916016 C28.80771667 67.21785309 28.80390991 66.29654602 28.79998779 65.34732056 C28.79896057 64.3587204 28.79793335 63.37012024 28.796875 62.3515625 C28.77855063 60.24998913 28.75898067 58.14842632 28.73828125 56.046875 C28.70929703 52.73972689 28.68749937 49.43326004 28.68701172 46.12597656 C28.68367534 42.92972635 28.64911949 39.73504076 28.609375 36.5390625 C28.6164447 35.5545108 28.6235144 34.56995911 28.63079834 33.55557251 C28.55067329 29.02781921 28.43500637 25.8105895 25.52050781 22.20458984 C21.43199314 18.41826974 18.80856227 18.58627616 13.41796875 18.6640625 C10.46896629 18.84053824 8.42648244 19.17910528 5.9375 20.8125 C3.20546539 25.60095015 3.64084652 30.76968953 3.62890625 36.1171875 C3.60374685 38.16536744 3.57834882 40.21354445 3.55273438 42.26171875 C3.52401001 45.47639208 3.49997947 48.69101475 3.48120117 51.90576172 C3.45948449 55.01816781 3.4200424 58.12998621 3.37890625 61.2421875 C3.37879044 62.19656708 3.37867462 63.15094666 3.3785553 64.13424683 C3.29540685 69.77120276 2.71158358 73.85840046 -0.0625 78.8125 C-3.73158557 81.25855705 -6.79868769 81.65196402 -11.0625 80.8125 C-13.75355198 78.63675584 -15.51782928 76.90184144 -17.0625 73.8125 C-17.15943203 71.67371729 -17.19046857 69.53184679 -17.19189453 67.39086914 C-17.19364685 66.73215317 -17.19539917 66.07343719 -17.19720459 65.39476013 C-17.20161385 63.21236554 -17.19868804 61.0300517 -17.1953125 58.84765625 C-17.19598589 57.33312464 -17.1969562 55.81859313 -17.19821167 54.30406189 C-17.19968745 51.12725802 -17.19753821 47.95048225 -17.19287109 44.77368164 C-17.18717873 40.70028728 -17.19045043 36.62695887 -17.19644356 32.55356693 C-17.20005653 29.42491661 -17.1989071 26.29628194 -17.19631577 23.16763115 C-17.19564828 21.66571482 -17.19646869 20.16379708 -17.19879532 18.6618824 C-17.20133335 16.5623918 -17.19746477 14.46300803 -17.19189453 12.36352539 C-17.19109894 11.16820694 -17.19030334 9.97288849 -17.18948364 8.74134827 C-17.0625 5.8125 -17.0625 5.8125 -16.0625 2.8125 C-15.4025 2.8125 -14.7425 2.8125 -14.0625 2.8125 C-13.7325 1.8225 -13.4025 0.8325 -13.0625 -0.1875 C-8.5652947 -2.7573316 -4.49022845 -2.58528305 0 0 Z " fill="#1B1B1B" transform="translate(592.0625,75.1875)"/>
<path d="M0 0 C1.875 1.5 1.875 1.5 3 3 C3 3.66 3 4.32 3 5 C3.67804688 4.66226563 4.35609375 4.32453125 5.0546875 3.9765625 C16.38765888 -1.45447365 26.77497323 -3.78949994 39.11328125 -0.05859375 C51.47253485 4.69979741 60.43144546 12.52817322 65.875 24.75 C69.55140552 36.03039954 68.63826164 47.90254345 63.5 58.4375 C62.1085357 61.08043371 60.66016066 63.50975901 59 66 C58.34 66 57.68 66 57 66 C56.731875 66.639375 56.46375 67.27875 56.1875 67.9375 C55 70 55 70 52 71 C52 71.66 52 72.32 52 73 C40.52606389 79.70719059 30.64322596 83.13156514 17.15234375 80.4296875 C12.47360721 79.08887311 8.3450781 77.19241606 4 75 C4.02094727 75.85231201 4.04189453 76.70462402 4.06347656 77.58276367 C4.13185244 80.76029433 4.18189738 83.93744871 4.21972656 87.11547852 C4.2397799 88.48800023 4.26703028 89.86043717 4.30175781 91.23266602 C4.35054552 93.21072044 4.37088876 95.18941119 4.390625 97.16796875 C4.41157227 98.35672607 4.43251953 99.5454834 4.45410156 100.77026367 C3.90796231 104.65460573 2.76719657 106.26809612 0 109 C-3.47325181 110.1577506 -6.36067448 110.06866652 -10 110 C-10 109.34 -10 108.68 -10 108 C-10.99 108 -11.98 108 -13 108 C-14.62563221 105.13120021 -15.25052714 103.07764698 -15.25396729 99.78747559 C-15.25960693 98.95475632 -15.26524658 98.12203705 -15.27105713 97.26408386 C-15.26700867 96.35902603 -15.26296021 95.4539682 -15.25878906 94.52148438 C-15.26404602 93.08184074 -15.26404602 93.08184074 -15.26940918 91.6131134 C-15.27821318 88.43991874 -15.27238196 85.26694694 -15.265625 82.09375 C-15.26697203 79.88944455 -15.26891288 77.68513939 -15.27142334 75.48083496 C-15.2743728 70.86072969 -15.27008262 66.24070175 -15.26074219 61.62060547 C-15.24934782 55.69543045 -15.25590823 49.77043662 -15.26788712 43.84526825 C-15.27511047 39.29342277 -15.27281558 34.74162032 -15.26763153 30.18977356 C-15.26629635 28.00486734 -15.26793814 25.81995722 -15.27259064 23.63505554 C-15.27766359 20.58277013 -15.26993461 17.53077909 -15.25878906 14.47851562 C-15.26283752 13.57345779 -15.26688599 12.66839996 -15.27105713 11.73591614 C-15.26541748 10.90319687 -15.25977783 10.0704776 -15.25396729 9.21252441 C-15.25321323 8.49134682 -15.25245918 7.77016922 -15.25168228 7.02713776 C-14.95066314 4.60262351 -14.31694436 3.05642044 -13 1 C-8.01330069 -1.87694191 -5.21752963 -2.60876481 0 0 Z M9.1875 24.6875 C4.87806131 31.21322144 3.33857379 36.9338486 4.50390625 44.71875 C6.05322424 51.84317289 10.26993826 55.83966781 16 60 C20.78154114 62.33990311 25.76324752 62.82112279 31 62 C38.48323682 59.34075872 42.68044048 55.95184215 46.6875 49.125 C49.35103614 42.78324728 49.2965124 37.92846424 47.140625 31.5 C44.61874334 25.97258814 40.91848111 22.20375286 35.8125 19 C25.51115992 16.29800916 16.95015358 17.26985325 9.1875 24.6875 Z " fill="#141414" transform="translate(413,75)"/>
<path d="M0 0 C7.75487728 8.67464179 11.22812575 17.81813291 12.3125 29.3125 C11.92969924 32.60458656 11.02966785 34.39042705 9 37 C5.83473476 39.00279189 3.29809948 39.26684907 -0.41113281 39.31884766 C-1.49195129 39.33871735 -2.57276978 39.35858704 -3.68634033 39.37905884 C-5.42714874 39.39638565 -5.42714874 39.39638565 -7.203125 39.4140625 C-8.39605164 39.43342865 -9.58897827 39.4527948 -10.8180542 39.4727478 C-14.62863004 39.53253267 -18.4392361 39.57892527 -22.25 39.625 C-24.83334652 39.66318072 -27.41668032 39.7022325 -30 39.7421875 C-36.33322046 39.83823344 -42.66651749 39.92328436 -49 40 C-48.34 40.78375 -47.68 41.5675 -47 42.375 C-45 45 -45 45 -45 47 C-44.278125 47.28875 -43.55625 47.5775 -42.8125 47.875 C-41.08089291 48.56764284 -39.35909929 49.28626898 -37.65625 50.046875 C-32.57724413 51.86934181 -26.85572402 51.94864805 -21.71875 50.2421875 C-18.52666189 48.68297523 -15.80521646 46.85689373 -12.9375 44.75 C-9.2475053 42.55170529 -7.22781927 42.30817503 -3 43 C0.04182595 45.00631073 1.55521079 46.52855896 2.62109375 50.0546875 C3.05454052 53.90902956 2.68302828 56.13013438 0.2578125 59.21875 C-8.09095886 66.96086323 -18.33035323 71.68865909 -29.828125 72.1015625 C-40.24699201 71.47643048 -49.19313227 67.87866265 -57 61 C-57.61746094 60.47535156 -58.23492187 59.95070313 -58.87109375 59.41015625 C-66.0730235 52.82774734 -70.55139468 43.54483122 -71.21875 33.80859375 C-71.50872618 22.60826372 -69.57674979 14.09718085 -63 5 C-62.2575 3.96875 -61.515 2.9375 -60.75 1.875 C-53.63288867 -5.5656164 -43.5154815 -11.15184613 -33.11328125 -11.96484375 C-20.74023872 -12.17067995 -9.12169523 -8.69219837 0 0 Z M-45.8203125 14.01171875 C-48.64408411 17.19195617 -48.64408411 17.19195617 -50 21 C-36.47 21 -22.94 21 -9 21 C-13.26855838 14.59716244 -16.56105335 10.45789758 -24 8 C-32.39887709 7.00371941 -39.92175505 7.49292672 -45.8203125 14.01171875 Z " fill="#151515" transform="translate(380,85)"/>
<path d="M0 0 C3.46152436 0.89188826 4.92559714 2.83742777 7.16796875 5.55859375 C7.8072052 8.93122864 7.8072052 8.93122864 7.82739258 12.82739258 C7.83787628 13.54013336 7.84835999 14.25287415 7.85916138 14.98721313 C7.8878397 17.33046387 7.88162914 19.67223073 7.875 22.015625 C7.88811957 23.64517563 7.9034246 25.27471001 7.92082214 26.90422058 C7.96065544 31.18354885 7.97086145 35.46245156 7.97485352 39.74194336 C7.98418819 44.11259863 8.02160377 48.48300419 8.05664062 52.85351562 C8.12119939 61.42187961 8.15445339 69.98999793 8.16796875 78.55859375 C8.7501265 77.97421539 9.33228424 77.38983704 9.93208313 76.78775024 C15.41776804 71.28203153 20.90585192 65.77872064 26.39664936 60.27810097 C29.21945969 57.4500712 32.04133186 54.62111836 34.86108398 51.79003906 C37.5821262 49.05813469 40.30560108 46.3286775 43.0307827 43.60090256 C44.07026438 42.55957264 45.10886524 41.5173627 46.14657021 40.47426224 C47.59970732 39.01387059 49.05593945 37.55663399 50.51293945 36.10009766 C51.34122757 35.26958893 52.16951569 34.4390802 53.02290344 33.58340454 C56.13480781 30.64595666 57.71908666 29.60927399 62.04296875 29.12109375 C65.41447255 29.22043824 66.18218164 29.56857301 69.10546875 31.62109375 C71.67660596 35.28301645 72.4728169 37.06208352 72.16796875 41.55859375 C67.46693599 48.44359367 60.62703421 54.21721573 54.73046875 60.05859375 C53.80814453 60.97640625 52.88582031 61.89421875 51.93554688 62.83984375 C49.68196976 65.0817443 47.426078 67.32125975 45.16796875 69.55859375 C46.94212507 73.42079948 49.12814375 75.51306257 52.35546875 78.30859375 C56.4216868 81.89264894 60.13412552 85.58853285 63.6015625 89.7578125 C65.1465948 91.53402171 66.79155946 93.05186415 68.54296875 94.62109375 C71.65339362 98.10180729 72.25227399 99.92180548 72.16796875 104.55859375 C70.57957941 108.13246977 69.45162517 109.36948947 66.16796875 111.55859375 C61.96034356 112.37059159 59.64232793 112.52899016 56.01953125 110.14453125 C53.87547559 108.24927386 51.82922223 106.28997527 49.82568359 104.24707031 C47.81955793 102.20371757 45.7849002 100.19047432 43.75 98.17578125 C39.53417344 93.99151749 35.3443241 89.78222585 31.16796875 85.55859375 C27.27753242 87.1365529 24.69101507 89.79413756 21.81640625 92.75 C21.31630035 93.25530746 20.81619446 93.76061493 20.30093384 94.28123474 C18.71009932 95.88982459 17.12613791 97.50496194 15.54296875 99.12109375 C13.95179099 100.73989613 12.35917174 102.35721196 10.76358032 103.97166443 C9.77249777 104.97499802 8.78410067 105.98099283 7.79867554 106.98988342 C4.70694222 110.12674671 3.33219563 111.47072757 -1.14453125 111.80859375 C-5.02858202 111.54526827 -6.77734529 110.89453007 -9.83203125 108.55859375 C-11.55775464 105.10714698 -10.98850031 101.12237867 -10.99316406 97.32299805 C-10.99812897 96.36513397 -11.00309387 95.4072699 -11.00820923 94.42037964 C-11.02285339 91.24118337 -11.02963682 88.062037 -11.03515625 84.8828125 C-11.04090612 82.67804462 -11.04666387 80.47327675 -11.0524292 78.26850891 C-11.06294579 73.64067349 -11.06878406 69.01285547 -11.07226562 64.38500977 C-11.07774985 58.45311188 -11.10177372 52.5214436 -11.13023758 46.58961773 C-11.14885615 42.03344551 -11.15406916 37.47732865 -11.1556015 32.9211216 C-11.15863063 30.73423826 -11.16666787 28.54735596 -11.17978668 26.36050987 C-11.1968296 23.30095308 -11.194971 20.24195797 -11.18847656 17.18237305 C-11.19769135 16.2777684 -11.20690613 15.37316376 -11.21640015 14.44114685 C-11.16098019 6.11211798 -9.06289762 0.54342326 0 0 Z " fill="#141414" transform="translate(848.83203125,44.44140625)"/>
<path d="M0 0 C8.18910214 7.08648475 13.73967092 16.74172579 14.8203125 27.63671875 C14.94659773 31.9503564 15.01130917 34.50904334 12.76953125 38.296875 C9.38369752 41.2957563 6.63510452 41.35804184 2.28442383 41.34790039 C0.66308281 41.34778709 0.66308281 41.34778709 -0.99101257 41.34767151 C-2.1567128 41.34251022 -3.32241302 41.33734894 -4.5234375 41.33203125 C-5.71777908 41.3306163 -6.91212067 41.32920135 -8.14265442 41.32774353 C-11.96361783 41.3221385 -15.784523 41.30958511 -19.60546875 41.296875 C-22.19335853 41.29186065 -24.78124923 41.28729763 -27.36914062 41.28320312 C-33.71876993 41.27216743 -40.06836518 41.25542436 -46.41796875 41.234375 C-45.6669506 42.35702125 -44.90581757 43.47290417 -44.140625 44.5859375 C-43.71789307 45.20807129 -43.29516113 45.83020508 -42.85961914 46.47119141 C-39.70850441 50.32510345 -35.23989311 52.2626564 -30.41796875 53.234375 C-22.69549235 53.9766463 -17.08313845 52.36940775 -10.91796875 47.546875 C-8.29388555 45.6155028 -7.23466567 45.20221657 -3.85546875 44.609375 C0.68303553 45.4345576 2.58839384 46.72962877 5.58203125 50.234375 C6.38654278 53.08464443 6.35557236 55.37867061 5.58203125 58.234375 C3.45703125 60.921875 3.45703125 60.921875 0.58203125 63.234375 C-0.77921875 64.5028125 -0.77921875 64.5028125 -2.16796875 65.796875 C-11.20267564 73.21656951 -22.06817251 74.03714715 -33.28515625 73.45654297 C-42.99710959 72.44488116 -51.66278645 66.34061102 -58.1640625 59.359375 C-65.94565002 49.73426924 -68.40504927 38.37975699 -67.41796875 26.234375 C-65.36256013 15.22419251 -60.29947299 5.79018543 -51.41796875 -1.203125 C-50.10477285 -2.08793855 -48.7715416 -2.94390789 -47.41796875 -3.765625 C-46.79277344 -4.15363281 -46.16757812 -4.54164062 -45.5234375 -4.94140625 C-30.42167267 -13.39962484 -13.19274066 -10.11135927 0 0 Z M-46.16796875 20.52734375 C-47.51643596 22.01621701 -47.51643596 22.01621701 -47.41796875 23.234375 C-33.55796875 23.234375 -19.69796875 23.234375 -5.41796875 23.234375 C-9.68652713 16.83153744 -12.9790221 12.69227258 -20.41796875 10.234375 C-32.09978924 8.8486694 -38.76609314 11.62196216 -46.16796875 20.52734375 Z " fill="#141414" transform="translate(986.41796875,82.765625)"/>
<path d="M0 0 C0.04125 -0.598125 0.0825 -1.19625 0.125 -1.8125 C1 -4 1 -4 3.625 -5.875 C7.94746962 -7.31582321 9.86687124 -6.83694611 14 -5 C17.88969316 -1.13884359 18.50590107 1.50417809 18.53344727 6.9140625 C18.54637062 7.92723541 18.54637062 7.92723541 18.55955505 8.96087646 C18.58216696 11.18264625 18.57548657 13.40314988 18.56640625 15.625 C18.5716437 17.17529677 18.57792063 18.72559034 18.58518982 20.27587891 C18.59558487 23.52066065 18.59104537 26.7650036 18.57641602 30.00976562 C18.55922127 34.16295735 18.5827348 38.31476647 18.61790562 42.46780396 C18.63989041 45.66781742 18.63843583 48.86750051 18.6301403 52.06756592 C18.62932151 53.59854652 18.63617129 55.12955156 18.65091133 56.66046143 C18.66838134 58.80314584 18.6538008 60.94335174 18.63110352 63.0859375 C18.63014175 64.3032959 18.62917999 65.5206543 18.62818909 66.77490234 C17.82875529 70.8791635 16.14354202 72.34571449 13 75 C12.67 75.33 12.34 75.66 12 76 C7.83599038 76.40038554 5.67749304 76.44184328 2.125 74.125 C0 72 0 72 -1 70 C-1.74443359 70.39832031 -1.74443359 70.39832031 -2.50390625 70.8046875 C-3.18324219 71.15789062 -3.86257813 71.51109375 -4.5625 71.875 C-5.22378906 72.22304687 -5.88507812 72.57109375 -6.56640625 72.9296875 C-16.41451022 77.26095634 -28.10719845 77.77858981 -38.25 74.125 C-39.84965389 73.45433765 -41.43566182 72.7493508 -43 72 C-44.09248047 71.47986328 -44.09248047 71.47986328 -45.20703125 70.94921875 C-47.2496442 69.86783543 -48.42962335 68.69600678 -50 67 C-50.7425 66.319375 -51.485 65.63875 -52.25 64.9375 C-60.69092387 56.34310479 -64.81272785 47.1088881 -65.4375 35.0625 C-65.10135987 25.57418088 -61.56353634 16.59852111 -56 9 C-55.443125 8.175 -54.88625 7.35 -54.3125 6.5 C-53.879375 6.005 -53.44625 5.51 -53 5 C-52.34 5 -51.68 5 -51 5 C-51 4.34 -51 3.68 -51 3 C-35.64010245 -10.03594142 -17.00344589 -8.61765553 0 0 Z M-41.9375 21.5625 C-46.12485638 27.21876955 -46.71942547 32.09551389 -46 39 C-43.97777379 45.9788785 -40.45754718 50.63874827 -34.4375 54.75 C-28.36551096 57.86384054 -21.81020764 57.87213341 -15.375 55.875 C-7.93027581 51.73904211 -3.45257277 47.32122903 -1 39 C-0.20020941 32.48741952 -1.81072147 27.15663416 -5.51171875 21.8203125 C-9.86234047 16.4822463 -13.76749614 13.46183398 -20.828125 12.69140625 C-30.34180128 12.29699505 -35.93434332 14.10108664 -41.9375 21.5625 Z " fill="#141414" transform="translate(757,80)"/>
<path d="M0 0 C1.06927734 0.50273438 1.06927734 0.50273438 2.16015625 1.015625 C4.57952007 2.3100617 6.11956526 4.00559952 8 6 C8.9075 6.86625 9.815 7.7325 10.75 8.625 C13 11 13 11 13 13 C13.66 13 14.32 13 15 13 C21.27933241 25.17519415 23.2034216 35.55286866 20 49 C16.11109994 60.66670019 8.11667723 69.75926415 -2.78125 75.453125 C-12.99905194 79.43919059 -25.22331764 79.89611999 -35.5 75.9375 C-47.17079833 70.24598739 -54.66624415 62.41180875 -59.23828125 50.296875 C-62.81670594 39.50654824 -61.7956428 28.24588372 -57 18 C-51.26334919 7.53099268 -42.92734116 0.28170964 -31.515625 -3.3203125 C-20.46074402 -6.30719028 -10.23952306 -4.91571306 0 0 Z M-37.3125 22.125 C-41.11008387 27.00463516 -43.08231584 32.37261526 -42.94140625 38.58203125 C-42.01065162 44.82864224 -39.63357953 49.68234635 -35 54 C-29.58753633 57.83538374 -24.18591257 59.87510169 -17.515625 59.4765625 C-11.05501348 58.25265783 -5.72886638 55.37276972 -1.5 50.3125 C1.83779795 45.27735594 3.34032481 39.83886391 2.8046875 33.796875 C1.21674015 26.23247127 -2.98301136 21.42064472 -9 17 C-18.96964633 12.21590797 -29.75585292 14.30969018 -37.3125 22.125 Z " fill="#181818" transform="translate(548,78)"/>
<path d="M0 0 C2.375 1.9375 2.375 1.9375 4 4 C4 4.66 4 5.32 4 6 C4.83917969 5.49339844 4.83917969 5.49339844 5.6953125 4.9765625 C12.70700771 1.07616613 19.91844473 -1.07660242 28 -1 C31.28595453 0.339299 33.49472642 1.49472642 36 4 C36.37109375 6.2421875 36.37109375 6.2421875 36.4375 8.875 C36.49744141 10.17050781 36.49744141 10.17050781 36.55859375 11.4921875 C36 14 36 14 33.87109375 16.23046875 C30.70678459 18.18071644 28.27354913 18.80918691 24.625 19.4375 C18.85124551 20.62890966 15.40028361 22.09974862 11 26 C10.67 26.66 10.34 27.32 10 28 C9.34 28 8.68 28 8 28 C7.7834375 28.8971875 7.7834375 28.8971875 7.5625 29.8125 C7.1127561 31.56150404 6.57107659 33.28677023 6 35 C5.8813712 37.87739114 5.8147297 40.73496107 5.7890625 43.61328125 C5.76098988 45.35352497 5.73232539 47.09375922 5.703125 48.83398438 C5.66191101 51.57250665 5.62501587 54.31085297 5.59863281 57.04956055 C5.57093712 59.69617038 5.52506381 62.34198164 5.4765625 64.98828125 C5.47330963 65.80097977 5.47005676 66.61367828 5.46670532 67.45100403 C5.36162803 72.33920609 4.730279 75.78073379 2 80 C-1.67682095 82.45121397 -4.72920963 82.82418762 -9 82 C-12.51506769 79.30760773 -14.26142104 77.32145566 -15 73 C-15.10190524 70.8572995 -15.14838018 68.71173488 -15.16113281 66.56665039 C-15.17074036 65.26172134 -15.1803479 63.9567923 -15.19024658 62.61231995 C-15.1950941 61.19076716 -15.19937304 59.76921235 -15.203125 58.34765625 C-15.20888038 56.88561502 -15.21463806 55.4235738 -15.22039795 53.96153259 C-15.2308896 50.89923757 -15.23674464 47.83696866 -15.24023438 44.7746582 C-15.24572328 40.85608779 -15.26976716 36.9378641 -15.29820633 33.0194025 C-15.31685176 30.00047298 -15.32203925 26.98162681 -15.32357025 23.96264458 C-15.32659169 22.51818376 -15.3346031 21.07372424 -15.34775543 19.62932014 C-15.36485809 17.60719839 -15.36108477 15.58493289 -15.35644531 13.56274414 C-15.36009094 12.41342911 -15.36373657 11.26411407 -15.36749268 10.07997131 C-14.95445922 6.61832087 -14.07862188 4.77444344 -12 2 C-7.71503363 -0.85664424 -4.94006305 -1.61089012 0 0 Z " fill="#212121" transform="translate(1022,74)"/>
<path d="M0 0 C2.375 2.625 2.375 2.625 4 5 C5.03125 4.38125 6.0625 3.7625 7.125 3.125 C13.6635429 -0.56842843 21.56716469 -3.19622062 29.12890625 -1.53125 C31.77148853 -0.51614532 33.67067607 0.58476548 35.4375 2.8125 C36.38436604 6.4947568 36.48642069 9.65298887 35.1875 13.25 C33.20923414 16.16533916 31.18703583 16.95818118 27.8203125 17.7109375 C25.36271943 18.15257685 22.90438266 18.59009817 20.4453125 19.0234375 C16.75594569 20.06917639 14.85717451 21.51149317 12 24 C11.34 24 10.68 24 10 24 C9.31225595 25.32258472 8.65288627 26.65986503 8 28 C7.48888672 29.02407959 6.97777344 30.04815918 6.45117188 31.10327148 C4.65237018 35.3405634 4.57602993 39.23230991 4.59375 43.78515625 C4.58291382 44.60447128 4.57207764 45.42378632 4.56091309 46.26792908 C4.51536853 49.74407583 4.50359148 53.22014184 4.48876953 56.6965332 C4.47302337 59.24717294 4.4400215 61.7972016 4.40625 64.34765625 C4.40927124 65.12593277 4.41229248 65.90420929 4.41540527 66.70606995 C4.34951306 71.51380573 3.67280547 74.84435283 1 79 C-2.67192113 81.44794742 -5.73106028 81.71435887 -10 81 C-12.96858157 78.79259319 -13.82865791 77.51402627 -15 74 C-15.1044374 71.87525939 -15.14863789 69.74738626 -15.16113281 67.62011719 C-15.17074036 66.30154724 -15.1803479 64.98297729 -15.19024658 63.62445068 C-15.19509544 62.18192722 -15.19937406 60.73940174 -15.203125 59.296875 C-15.20887966 57.81577554 -15.21463735 56.3346761 -15.22039795 54.85357666 C-15.23090218 51.7466192 -15.2367482 48.63968756 -15.24023438 45.53271484 C-15.24570907 41.56386863 -15.26971724 37.59536721 -15.29820633 33.62662888 C-15.31689268 30.56558254 -15.32204155 27.50461813 -15.32357025 24.44351959 C-15.32658527 22.98117443 -15.33457474 21.51883031 -15.34775543 20.05654144 C-15.36493773 18.00325346 -15.36290649 15.95079294 -15.35644531 13.89746094 C-15.36191376 12.14897858 -15.36191376 12.14897858 -15.36749268 10.36517334 C-14.92018416 6.26911703 -13.90623062 3.65055372 -12 0 C-7.50408706 -2.49772941 -4.55207878 -2.27603939 0 0 Z " fill="#151515" transform="translate(796,75)"/>
<path d="M0 0 C1.875 1.5 1.875 1.5 3 3 C3 3.66 3 4.32 3 5 C3.66644531 4.66226563 4.33289063 4.32453125 5.01953125 3.9765625 C12.80762852 0.20777697 22.30290263 -3.96974057 31 -1 C33.91352832 1.12608823 34.84290273 2.47260202 35.875 5.9375 C36.03740979 9.91653981 35.20397955 12.37847873 32.83984375 15.5625 C30.1759172 17.64386936 27.62900401 17.78544477 24.3125 18.3125 C17.95394469 19.57370105 13.43941269 21.18674203 9 26 C5.02818594 32.27802867 4.86250511 38.36438675 4.82421875 45.625 C4.8010315 47.31772092 4.77691462 49.01042931 4.75195312 50.703125 C4.71679832 53.35620677 4.6874555 56.00882255 4.67407227 58.66210938 C4.65858402 61.23363542 4.61838958 63.80382745 4.57421875 66.375 C4.57612717 67.16471191 4.57803558 67.95442383 4.58000183 68.76806641 C4.46964111 73.74889021 3.73496745 76.38244592 0 80 C-3.14911479 81.57455739 -5.52008816 81.34799118 -9 81 C-14.71571512 77.26472188 -14.71571512 77.26472188 -15.73498535 72.73020935 C-15.72769409 71.49206985 -15.72040283 70.25393036 -15.71289062 68.97827148 C-15.71697937 68.29146301 -15.72106812 67.60465454 -15.72528076 66.89703369 C-15.73127474 64.63728643 -15.69442596 62.38049156 -15.65625 60.12109375 C-15.65013037 58.54599225 -15.64638151 56.9708799 -15.64489746 55.39576721 C-15.63570548 52.09944025 -15.6069128 48.80409445 -15.5625 45.50805664 C-15.50588879 41.28563397 -15.48407096 37.06398225 -15.4751358 32.84121609 C-15.46681787 29.59064547 -15.44717593 26.34023012 -15.42338562 23.08973885 C-15.41200231 21.53283994 -15.40247764 19.97592629 -15.39485168 18.41900444 C-15.38108277 16.24318197 -15.35380111 14.06796261 -15.32226562 11.89233398 C-15.30860962 10.65499008 -15.29495361 9.41764618 -15.28088379 8.14280701 C-15.01188194 5.13294691 -14.7203646 3.45248705 -13 1 C-8.01330069 -1.87694191 -5.21752963 -2.60876481 0 0 Z " fill="#171717" transform="translate(275,75)"/>
<path d="M0 0 C2.1595386 4.31907719 2.25507499 6.38700706 2.26742554 11.14006042 C2.27195665 11.8599168 2.27648776 12.57977317 2.28115618 13.32144338 C2.29381859 15.73413619 2.29217863 18.1466038 2.29052734 20.55932617 C2.2965116 22.28913666 2.30331691 24.01894448 2.31088257 25.74874878 C2.32856394 30.44939378 2.33323895 35.14996598 2.33451414 39.85064101 C2.33593551 42.78886087 2.34020493 45.72706222 2.34550858 48.66527748 C2.36401852 58.92017416 2.3721783 69.17501882 2.37060547 79.42993164 C2.369405 88.98090857 2.39048634 98.53165916 2.4220928 108.08257884 C2.4482746 116.28741395 2.45897191 124.49217527 2.45769465 132.69705182 C2.45718542 137.59511949 2.46284674 142.49298622 2.48405075 147.39101219 C2.50346424 152.00151703 2.50353637 156.61162996 2.48901749 161.2221489 C2.48693189 162.90995038 2.49161542 164.59777658 2.5037384 166.28553581 C2.57270177 176.5558102 1.83283833 184.18892254 -3.9375 192.9375 C-6.1791581 195.1791581 -7.98930277 196.08006474 -11 197 C-11.35142196 193.76351714 -11.30933949 192.41221285 -9.3203125 189.76171875 C-8.59585938 189.07722656 -7.87140625 188.39273438 -7.125 187.6875 C-6.04605469 186.64142578 -6.04605469 186.64142578 -4.9453125 185.57421875 C-3 184 -3 184 -1 184 C-0.67 123.28 -0.34 62.56 0 0 Z " fill="#8EC4F7" transform="translate(206,24)"/>
<path d="M0 0 C0.8016488 0.2428133 0.8016488 0.2428133 1.61949253 0.49053192 C4.49254289 1.10541235 7.14833645 1.13753279 10.08811951 1.15148926 C11.96137154 1.16400475 11.96137154 1.16400475 13.87246704 1.17677307 C15.2540891 1.18108248 16.63571143 1.18530628 18.01733398 1.18945312 C19.4746474 1.19739835 20.93195845 1.20578653 22.38926697 1.21458435 C25.52782441 1.23263454 28.66637667 1.24765341 31.80496025 1.26036072 C36.77821527 1.28062396 41.75141249 1.30827595 46.72462463 1.33703613 C57.2955558 1.39711714 67.86652235 1.44887199 78.4375 1.5 C89.81988668 1.55517068 101.20225559 1.61194769 112.58458763 1.67754889 C117.51674119 1.70570294 122.44888882 1.7293697 127.38108146 1.74947357 C130.46825863 1.76298894 133.55540554 1.78039394 136.64255714 1.79878426 C138.0609802 1.80645326 139.47941282 1.81255979 140.89785004 1.81687737 C149.64414478 1.84450781 158.28921114 2.20023476 167 3 C167 3.33 167 3.66 167 4 C145.81653281 4.04669403 124.63307408 4.0819761 103.44956589 4.10362434 C93.61398347 4.11394258 83.778433 4.12801338 73.94287109 4.15087891 C65.37148907 4.17079601 56.80013019 4.18371245 48.22872567 4.18817699 C43.6890732 4.19078722 39.14948693 4.19693376 34.60985565 4.21146011 C30.33850107 4.22501749 26.06724007 4.22922638 21.79586601 4.22621536 C20.22691019 4.22676635 18.65795129 4.23075478 17.08901405 4.23841095 C14.94893665 4.24834343 12.80921382 4.24597523 10.66912842 4.24050903 C9.47079754 4.24235262 8.27246666 4.24419621 7.03782272 4.24609566 C4.11966219 4.0096939 2.45853281 3.52956543 0 2 C0 1.34 0 0.68 0 0 Z " fill="#79B0EC" transform="translate(22,219)"/>
<path d="M0 0 C9.03840665 1.15567413 9.03840665 1.15567413 12.5625 4.25 C14.22538571 7.43117265 15.07372854 9.38730134 15 13 C10.53902111 20.43496482 2.96171654 22.55024107 -5 25 C-3.70834692 16.56626517 -2.00616752 8.2921591 0 0 Z " fill="#74B7F9" transform="translate(117,94)"/>
<path d="M0 0 C0.9075 0.103125 1.815 0.20625 2.75 0.3125 C-2.25 5.3125 -2.25 5.3125 -4 6.875 C-7.07220858 10.40803987 -6.39344099 15.35590578 -6.38371277 19.78318787 C-6.38597833 20.53853492 -6.38824388 21.29388198 -6.39057809 22.07211834 C-6.39691123 24.60465366 -6.39608917 27.13713537 -6.39526367 29.66967773 C-6.39825556 31.48479278 -6.40165816 33.29990718 -6.40544128 35.11502075 C-6.41428173 40.0467839 -6.4166194 44.97852971 -6.41725707 49.91030002 C-6.41820622 54.02573488 -6.42188452 58.1411657 -6.42542917 62.25659901 C-6.43357365 71.96444374 -6.43601338 81.6722792 -6.43530273 91.38012695 C-6.4347017 101.3991741 -6.44525858 111.41816744 -6.4610464 121.43720096 C-6.47411414 130.03601728 -6.47948696 138.63481599 -6.47884732 147.23364216 C-6.47859214 152.37073568 -6.48145458 157.50778139 -6.49202538 162.64486504 C-6.50169363 167.47522952 -6.50179428 172.30550033 -6.49450874 177.13586807 C-6.49346137 178.90919824 -6.49583484 180.6825342 -6.5018692 182.45585442 C-6.50957042 184.87562316 -6.50495682 187.2950669 -6.49723816 189.71482849 C-6.50238172 190.41736124 -6.50752529 191.11989399 -6.51282471 191.84371561 C-6.48511538 195.77173901 -5.97126912 198.7719699 -4.25 202.3125 C-3.59 202.3125 -2.93 202.3125 -2.25 202.3125 C-2.25 202.9725 -2.25 203.6325 -2.25 204.3125 C-1.59 204.3125 -0.93 204.3125 -0.25 204.3125 C-0.745 206.2925 -0.745 206.2925 -1.25 208.3125 C-2.22310317 207.30573603 -3.17773578 206.28111297 -4.125 205.25 C-4.92550781 204.39728516 -4.92550781 204.39728516 -5.7421875 203.52734375 C-9.22021226 198.41843173 -9.50050235 192.71385947 -9.50396729 186.69778442 C-9.50864726 185.59577896 -9.50864726 185.59577896 -9.51342177 184.47151077 C-9.52135514 182.02665956 -9.51509642 179.58205979 -9.50878906 177.13720703 C-9.51150104 175.37739925 -9.51506314 173.6175926 -9.51940918 171.85778809 C-9.52851212 167.08912694 -9.5249972 162.32055252 -9.51865101 157.5518899 C-9.51357859 152.55394925 -9.51828606 147.5560159 -9.52142334 142.55807495 C-9.52506003 134.16354035 -9.52027236 125.76904097 -9.51074219 117.37451172 C-9.49986531 107.6820967 -9.50337885 97.98976588 -9.514395 88.29735291 C-9.52348478 79.96507331 -9.52474467 71.63281899 -9.51951766 63.30053604 C-9.51640635 58.32880326 -9.51596539 53.35711 -9.52259064 48.38537979 C-9.52838782 43.70843842 -9.52432388 39.03160505 -9.51280212 34.35467529 C-9.5101679 32.64269057 -9.51089937 30.93069669 -9.51532745 29.21871567 C-9.56194187 9.35839827 -9.56194187 9.35839827 -5.5 2.25 C-3.25 0.3125 -3.25 0.3125 0 0 Z " fill="#75B4F2" transform="translate(20.25,10.6875)"/>
<path d="M0 0 C-2.86177057 1.43088528 -4.93375773 0.59991697 -8 0 C-8 0.66 -8 1.32 -8 2 C-8.81263809 2.676642 -9.62527618 3.353284 -10.46253967 4.0504303 C-13.95834909 8.11399473 -13.68884684 10.99999297 -13.59936523 16.19311523 C-13.60330795 17.11079681 -13.60725067 18.02847839 -13.61131287 18.97396851 C-13.618017 22.00273507 -13.58886993 25.02998883 -13.55859375 28.05859375 C-13.5543423 30.1669943 -13.55201493 32.27539954 -13.55152893 34.38380432 C-13.54536435 38.80141432 -13.52267004 43.21851713 -13.48706055 47.63598633 C-13.44181622 53.29305168 -13.42703583 58.94965729 -13.42332363 64.60688686 C-13.41888984 68.96068337 -13.40357628 73.31438378 -13.3844471 77.6681385 C-13.37557922 79.75369541 -13.36884229 81.83926252 -13.36428642 83.9248333 C-13.35522113 86.84255979 -13.33280927 89.7598756 -13.30639648 92.67749023 C-13.30573181 93.53638351 -13.30506714 94.39527679 -13.30438232 95.28019714 C-13.24669309 99.90896462 -12.76750498 103.64391591 -11 108 C-11.66 108 -12.32 108 -13 108 C-14.62563221 105.13120021 -15.25052714 103.07764698 -15.25396729 99.78747559 C-15.25960693 98.95475632 -15.26524658 98.12203705 -15.27105713 97.26408386 C-15.26700867 96.35902603 -15.26296021 95.4539682 -15.25878906 94.52148438 C-15.26404602 93.08184074 -15.26404602 93.08184074 -15.26940918 91.6131134 C-15.27821318 88.43991874 -15.27238196 85.26694694 -15.265625 82.09375 C-15.26697203 79.88944455 -15.26891288 77.68513939 -15.27142334 75.48083496 C-15.2743728 70.86072969 -15.27008262 66.24070175 -15.26074219 61.62060547 C-15.24934782 55.69543045 -15.25590823 49.77043662 -15.26788712 43.84526825 C-15.27511047 39.29342277 -15.27281558 34.74162032 -15.26763153 30.18977356 C-15.26629635 28.00486734 -15.26793814 25.81995722 -15.27259064 23.63505554 C-15.27766359 20.58277013 -15.26993461 17.53077909 -15.25878906 14.47851562 C-15.26283752 13.57345779 -15.26688599 12.66839996 -15.27105713 11.73591614 C-15.26541748 10.90319687 -15.25977783 10.0704776 -15.25396729 9.21252441 C-15.25321323 8.49134682 -15.25245918 7.77016922 -15.25168228 7.02713776 C-14.95066314 4.60262351 -14.31694436 3.05642044 -13 1 C-7.97572694 -1.89861907 -5.30062525 -2.45638731 0 0 Z " fill="#A8A8A8" transform="translate(413,75)"/>
<path d="M0 0 C0.04125 -0.598125 0.0825 -1.19625 0.125 -1.8125 C1 -4 1 -4 3.625 -5.875 C7.81882817 -7.27294272 9.93639457 -6.54417006 14 -5 C10.93109813 -3.46554906 8.29905734 -4.45015711 5 -5 C4.566875 -4.1028125 4.566875 -4.1028125 4.125 -3.1875 C3 -1 3 -1 1 2 C-1.81294605 1.08769317 -4.5841632 0.18623802 -7.28515625 -1.0234375 C-18.90184869 -5.9644741 -31.23405008 -5.18788048 -43 -1 C-42 -3 -42 -3 -40.1796875 -3.81640625 C-25.41830276 -8.59509182 -13.6652274 -6.92578571 0 0 Z " fill="#BCBCBC" transform="translate(757,80)"/>
<path d="M0 0 C0.33 0 0.66 0 1 0 C1.07438973 5.30188966 1.12871511 10.60347268 1.16479492 15.90576172 C1.1798424 17.70789892 1.2002853 19.50999973 1.22631836 21.31201172 C1.26288021 23.90862021 1.27976681 26.50474275 1.29296875 29.1015625 C1.30845261 29.9017984 1.32393646 30.7020343 1.33988953 31.52651978 C1.34135602 36.44735026 0.61929386 39.67982673 -2 44 C-2.99 44 -3.98 44 -5 44 C-4.5148291 43.18305664 -4.0296582 42.36611328 -3.52978516 41.52441406 C-1.76437998 37.45716397 -1.54230848 33.96161869 -1.5234375 29.609375 C-1.50785797 28.82355042 -1.49227844 28.03772583 -1.47622681 27.22808838 C-1.42896635 24.73540137 -1.40101885 22.24299131 -1.375 19.75 C-1.33848447 17.24292027 -1.29789808 14.73599676 -1.25234985 12.22906494 C-1.22516137 10.67329084 -1.20379348 9.11740194 -1.18881226 7.5614624 C-1.11066202 2.22132404 -1.11066202 2.22132404 0 0 Z " fill="#787878" transform="translate(799,110)"/>
<path d="M0 0 C0.33 0 0.66 0 1 0 C0.97052659 6.36625583 -0.29981419 10.46058342 -4.3671875 15.40234375 C-6.38675337 17.37842614 -8.25160206 18.35331813 -11 19 C-11.35142196 15.76351714 -11.30933949 14.41221285 -9.3203125 11.76171875 C-8.23363281 10.73498047 -8.23363281 10.73498047 -7.125 9.6875 C-6.40570313 8.99011719 -5.68640625 8.29273438 -4.9453125 7.57421875 C-3 6 -3 6 -1 6 C-0.67 4.02 -0.34 2.04 0 0 Z " fill="#7CBDFA" transform="translate(206,202)"/>
<path d="M0 0 C0.79296875 1.68359375 0.79296875 1.68359375 1 4 C-0.94921875 6.47265625 -0.94921875 6.47265625 -3.6875 9.0625 C-4.57824219 9.91972656 -5.46898437 10.77695313 -6.38671875 11.66015625 C-9 14 -9 14 -13 17 C-12.34 20.3 -11.68 23.6 -11 27 C-10.34 27 -9.68 27 -9 27 C-9 29.31 -9 31.62 -9 34 C-11.17260367 30.7410945 -12.35021087 27.67850305 -13.6875 24 C-14.14511719 22.7625 -14.60273438 21.525 -15.07421875 20.25 C-16 17 -16 17 -15 14 C-13.07421875 12.5703125 -13.07421875 12.5703125 -10.6875 11.125 C-5.87383126 8.04578015 -3.15221921 4.72832882 0 0 Z " fill="#7DB5EE" transform="translate(162,119)"/>
<path d="M0 0 C0.928125 0.0825 1.85625 0.165 2.8125 0.25 C-2.1875 5.25 -2.1875 5.25 -3.875 6.75 C-5.59955886 8.72092441 -6.32586409 10.79765165 -7.1875 13.25 C-8.1875 11.25 -8.1875 11.25 -7.4375 7.875 C-4.8532401 0.38064628 -4.8532401 0.38064628 0 0 Z " fill="#E9F7FE" transform="translate(20.1875,10.75)"/>
<path d="M0 0 C2.79872437 2.52788007 4.45773019 4.20411134 5 8 C5.66 8 6.32 8 7 8 C7 8.66 7 9.32 7 10 C7.66 10 8.32 10 9 10 C8.67 11.32 8.34 12.64 8 14 C3.69715653 9.54831603 1.2457549 6.10419901 0 0 Z " fill="#96C6F4" transform="translate(11,205)"/>
<path d="M0 0 C-2.86177057 1.43088528 -4.93375773 0.59991697 -8 0 C-8 0.66 -8 1.32 -8 2 C-9.95927063 3.7143618 -11.95880212 5.38405168 -14 7 C-13.9375 4.1875 -13.9375 4.1875 -13 1 C-8.08554514 -2.08357952 -5.25416268 -2.43485587 0 0 Z " fill="#8A8A8A" transform="translate(413,75)"/>
<path d="M0 0 C0.33 0 0.66 0 1 0 C0.72569093 6.17195408 -0.03814035 10.17148355 -4 15 C-4.33 15 -4.66 15 -5 15 C-5.5720047 10.13796007 -3.73536265 7.89581953 -1 4 C-0.23060319 1.77397385 -0.23060319 1.77397385 0 0 Z " fill="#90C2EF" transform="translate(206,202)"/>
<path d="M0 0 C0.66 0.33 1.32 0.66 2 1 C-0.38710671 4.75116769 -2.75301947 7.96250209 -6 11 C-6.5775 11.5775 -7.155 12.155 -7.75 12.75 C-8.36875 13.36875 -8.36875 13.36875 -9 14 C-7.64002446 7.95566426 -4.14348206 4.36505864 0 0 Z " fill="#909090" transform="translate(322,84)"/>
<path d="M0 0 C-3.06890187 1.53445094 -5.70094266 0.54984289 -9 0 C-9.28875 0.598125 -9.5775 1.19625 -9.875 1.8125 C-11 4 -11 4 -13 7 C-13.66 6.67 -14.32 6.34 -15 6 C-14.06054899 2.52403128 -13.27573512 1.19878578 -10.3125 -0.9375 C-6.16999402 -2.26622833 -4.0016644 -1.52063247 0 0 Z " fill="#8D8D8D" transform="translate(771,75)"/>
<path d="M0 0 C-0.25 1.875 -0.25 1.875 -1 4 C-2.31647119 4.69937532 -3.65022151 5.36729133 -5 6 C-5.33 6.99 -5.66 7.98 -6 9 C-6.8125 7.3125 -6.8125 7.3125 -7 5 C-2.79545455 0 -2.79545455 0 0 0 Z " fill="#81B9F1" transform="translate(21,14)"/>
<path d="M0 0 C0.66 0.33 1.32 0.66 2 1 C-1.0684847 3.97550031 -2.46236331 4.96474513 -6.8125 5.25 C-7.864375 5.1675 -8.91625 5.085 -10 5 C-9.67 4.01 -9.34 3.02 -9 2 C-7.68 2 -6.36 2 -5 2 C-4.13375 1.649375 -3.2675 1.29875 -2.375 0.9375 C-1.59125 0.628125 -0.8075 0.31875 0 0 Z " fill="#DDF2FC" transform="translate(121,115)"/>
<path d="M0 0 C0.99 0.33 1.98 0.66 3 1 C0.525 2.485 0.525 2.485 -2 4 C-1.67 6.31 -1.34 8.62 -1 11 C-3.89932357 8.60490662 -4.50168276 6.68754757 -5 3 C-2.6875 1.4375 -2.6875 1.4375 0 0 Z " fill="#DBF3FE" transform="translate(149,130)"/>
<path d="M0 0 C0.33 0 0.66 0 1 0 C1 2.97 1 5.94 1 9 C1.99 9.33 2.98 9.66 4 10 C2.02 10.66 0.04 11.32 -2 12 C-1.34 8.04 -0.68 4.08 0 0 Z " fill="#80B7EE" transform="translate(114,107)"/>
<path d="M0 0 C1.32 0.33 2.64 0.66 4 1 C0.535 3.97 0.535 3.97 -3 7 C-2.25 2.25 -2.25 2.25 0 0 Z " fill="#DFF5FE" transform="translate(156,123)"/>
<path d="M0 0 C-3.06890187 1.53445094 -5.70094266 0.54984289 -9 0 C-9.33 0.99 -9.66 1.98 -10 3 C-10.99 3 -11.98 3 -13 3 C-13 2.34 -13 1.68 -13 1 C-7.84596189 -1.68009982 -5.54675294 -2.57044649 0 0 Z " fill="#A6A6A6" transform="translate(275,75)"/>
<path d="M0 0 C4.95 0.99 4.95 0.99 10 2 C9.34 2.66 8.68 3.32 8 4 C5.0574037 3.69347955 2.65457692 3.32728846 0 2 C0 1.34 0 0.68 0 0 Z " fill="#8BBCEE" transform="translate(22,219)"/>
<path d="M0 0 C0.66 0.33 1.32 0.66 2 1 C0.9375 3 0.9375 3 -1 5 C-4.6875 5.25 -4.6875 5.25 -8 5 C-7.67 4.34 -7.34 3.68 -7 3 C-5.33499557 2.65846063 -3.66821323 2.32550502 -2 2 C-1.34 1.34 -0.68 0.68 0 0 Z " fill="#7FB7F0" transform="translate(154,180)"/>
<path d="M0 0 C0 2 0 4 0 6 C-3 8.1875 -3 8.1875 -6 10 C-4.6302836 6.00499382 -2.74277578 3.19990508 0 0 Z " fill="#6E6E6E" transform="translate(498,86)"/>
<path d="M0 0 C2.64 1.65 5.28 3.3 8 5 C5.50907189 6.24546405 4.58919267 5.7767578 2 5 C2 4.34 2 3.68 2 3 C1.34 3 0.68 3 0 3 C0 2.01 0 1.02 0 0 Z " fill="#81B7ED" transform="translate(137,177)"/>
<path d="M0 0 C2.32472205 2.85306797 3.7508258 5.54074837 5 9 C3.68 8.67 2.36 8.34 1 8 C0.67 5.36 0.34 2.72 0 0 Z " fill="#7DBAF5" transform="translate(53,71)"/>
<path d="M0 0 C-2.85306797 2.32472205 -5.54074837 3.7508258 -9 5 C-9 4.34 -9 3.68 -9 3 C-6.04341306 0.15291628 -4.05047276 -0.3375394 0 0 Z " fill="#80B5EA" transform="translate(63,60)"/>
<path d="" fill="#FFFFFF" transform="translate(0,0)"/>
<path d="" fill="#FFFFFF" transform="translate(0,0)"/>
<path d="" fill="#FFFFFF" transform="translate(0,0)"/>
<path d="" fill="#FFFFFF" transform="translate(0,0)"/>
<path d="" fill="#FFFFFF" transform="translate(0,0)"/>
<path d="" fill="#FFFFFF" transform="translate(0,0)"/>
<path d="" fill="#FFFFFF" transform="translate(0,0)"/>
<path d="" fill="#FFFFFF" transform="translate(0,0)"/>
<path d="" fill="#FFFFFF" transform="translate(0,0)"/>
<path d="" fill="#FFFFFF" transform="translate(0,0)"/>
<path d="" fill="#FFFFFF" transform="translate(0,0)"/>
<path d="" fill="#FFFFFF" transform="translate(0,0)"/>
<path d="" fill="#FFFFFF" transform="translate(0,0)"/>
<path d="" fill="#FFFFFF" transform="translate(0,0)"/>
<path d="" fill="#FFFFFF" transform="translate(0,0)"/>
<path d="" fill="#FFFFFF" transform="translate(0,0)"/>
<path d="" fill="#FFFFFF" transform="translate(0,0)"/>
<path d="" fill="#FFFFFF" transform="translate(0,0)"/>
<path d="" fill="#FFFFFF" transform="translate(0,0)"/>
<path d="" fill="#FFFFFF" transform="translate(0,0)"/>
<path d="" fill="#FFFFFF" transform="translate(0,0)"/>
<path d="" fill="#FFFFFF" transform="translate(0,0)"/>
<path d="" fill="#FFFFFF" transform="translate(0,0)"/>
<path d="" fill="#FFFFFF" transform="translate(0,0)"/>
<path d="" fill="#FFFFFF" transform="translate(0,0)"/>
<path d="" fill="#FFFFFF" transform="translate(0,0)"/>
<path d="" fill="#FFFFFF" transform="translate(0,0)"/>
<path d="" fill="#FFFFFF" transform="translate(0,0)"/>
<path d="" fill="#FFFFFF" transform="translate(0,0)"/>
<path d="" fill="#FFFFFF" transform="translate(0,0)"/>
<path d="" fill="#FFFFFF" transform="translate(0,0)"/>
<path d="" fill="#FFFFFF" transform="translate(0,0)"/>
<path d="" fill="#FFFFFF" transform="translate(0,0)"/>
<path d="" fill="#FFFFFF" transform="translate(0,0)"/>
<path d="" fill="#FFFFFF" transform="translate(0,0)"/>
<path d="" fill="#FFFFFF" transform="translate(0,0)"/>
<path d="" fill="#FFFFFF" transform="translate(0,0)"/>
<path d="" fill="#FFFFFF" transform="translate(0,0)"/>
<path d="" fill="#FFFFFF" transform="translate(0,0)"/>
<path d="" fill="#FFFFFF" transform="translate(0,0)"/>
<path d="" fill="#FFFFFF" transform="translate(0,0)"/>
<path d="" fill="#FFFFFF" transform="translate(0,0)"/>
<path d="" fill="#FFFFFF" transform="translate(0,0)"/>
<path d="" fill="#FFFFFF" transform="translate(0,0)"/>
<path d="" fill="#FFFFFF" transform="translate(0,0)"/>
<path d="" fill="#FFFFFF" transform="translate(0,0)"/>
<path d="" fill="#FFFFFF" transform="translate(0,0)"/>
<path d="" fill="#FFFFFF" transform="translate(0,0)"/>
<path d="" fill="#FFFFFF" transform="translate(0,0)"/>
</svg>
